<mxfile host="app.diagrams.net" agent="Mozilla/5.0 (Windows NT 10.0; Win64; x64) AppleWebKit/537.36 (KHTML, like Gecko) Chrome/135.0.0.0 Safari/537.36" version="26.2.12">
  <diagram name="Page-1" id="cCT_nkpL7Fhufkuj1VJg">
    <mxGraphModel dx="1044" dy="527" grid="1" gridSize="10" guides="1" tooltips="1" connect="1" arrows="1" fold="1" page="1" pageScale="1" pageWidth="850" pageHeight="1100" math="0" shadow="0">
      <root>
        <mxCell id="0" />
        <mxCell id="1" parent="0" />
        <mxCell id="FS-qKcWpxtv8lHAOdf_1-1" value="" style="points=[];aspect=fixed;html=1;align=center;shadow=0;dashed=0;fillColor=#FF6A00;strokeColor=none;shape=mxgraph.alibaba_cloud.webplus_web_app_service;" parent="1" vertex="1">
          <mxGeometry x="390" y="80" width="70" height="70" as="geometry" />
        </mxCell>
        <mxCell id="FS-qKcWpxtv8lHAOdf_1-2" value="Load balancer" style="rounded=0;whiteSpace=wrap;html=1;" parent="1" vertex="1">
          <mxGeometry x="335" y="220" width="180" height="30" as="geometry" />
        </mxCell>
        <mxCell id="FS-qKcWpxtv8lHAOdf_1-3" value="" style="endArrow=classic;html=1;rounded=0;exitX=0.469;exitY=0.931;exitDx=0;exitDy=0;exitPerimeter=0;" parent="1" source="FS-qKcWpxtv8lHAOdf_1-1" edge="1">
          <mxGeometry width="50" height="50" relative="1" as="geometry">
            <mxPoint x="424" y="160" as="sourcePoint" />
            <mxPoint x="424" y="220" as="targetPoint" />
          </mxGeometry>
        </mxCell>
        <mxCell id="FS-qKcWpxtv8lHAOdf_1-4" value="Client App" style="text;html=1;align=center;verticalAlign=middle;resizable=0;points=[];autosize=1;strokeColor=none;fillColor=none;" parent="1" vertex="1">
          <mxGeometry x="450" y="120" width="80" height="30" as="geometry" />
        </mxCell>
        <mxCell id="FS-qKcWpxtv8lHAOdf_1-5" value="Kubernetes Service" style="text;whiteSpace=wrap;" parent="1" vertex="1">
          <mxGeometry x="550" y="220" width="140" height="40" as="geometry" />
        </mxCell>
        <mxCell id="ivFIAC95_RpvVgIWz3T0-2" value="Primary Pod&lt;div&gt;&lt;span style=&quot;line-height: 115%; font-family: Calibri, sans-serif;&quot;&gt;&lt;font style=&quot;font-size: 10px;&quot;&gt;ipsldb-cluster-postgresql-primary-0&amp;nbsp;&lt;/font&gt;&lt;/span&gt;&lt;/div&gt;" style="rounded=0;whiteSpace=wrap;html=1;" parent="1" vertex="1">
          <mxGeometry x="335" y="450" width="130" height="60" as="geometry" />
        </mxCell>
        <mxCell id="bbqy9v9eoCSNzsAu7G5P-1" value="replica pod 1" style="rounded=0;whiteSpace=wrap;html=1;" vertex="1" parent="1">
          <mxGeometry x="240" y="300" width="130" height="60" as="geometry" />
        </mxCell>
        <mxCell id="bbqy9v9eoCSNzsAu7G5P-2" value="replica pod 2&lt;div&gt;&lt;br&gt;&lt;/div&gt;" style="rounded=0;whiteSpace=wrap;html=1;" vertex="1" parent="1">
          <mxGeometry x="450" y="300" width="130" height="60" as="geometry" />
        </mxCell>
        <mxCell id="bbqy9v9eoCSNzsAu7G5P-6" value="" style="endArrow=none;dashed=1;html=1;dashPattern=1 3;strokeWidth=2;rounded=0;exitX=0.123;exitY=1.16;exitDx=0;exitDy=0;exitPerimeter=0;" edge="1" parent="1" source="FS-qKcWpxtv8lHAOdf_1-2">
          <mxGeometry width="50" height="50" relative="1" as="geometry">
            <mxPoint x="320" y="250" as="sourcePoint" />
            <mxPoint x="270" y="290" as="targetPoint" />
          </mxGeometry>
        </mxCell>
        <mxCell id="bbqy9v9eoCSNzsAu7G5P-10" value="" style="endArrow=none;dashed=1;html=1;dashPattern=1 3;strokeWidth=2;rounded=0;entryX=0.5;entryY=0;entryDx=0;entryDy=0;" edge="1" parent="1" target="bbqy9v9eoCSNzsAu7G5P-2">
          <mxGeometry width="50" height="50" relative="1" as="geometry">
            <mxPoint x="450" y="260" as="sourcePoint" />
            <mxPoint x="280" y="300" as="targetPoint" />
          </mxGeometry>
        </mxCell>
        <mxCell id="bbqy9v9eoCSNzsAu7G5P-12" value="" style="endArrow=none;html=1;rounded=0;" edge="1" parent="1">
          <mxGeometry width="50" height="50" relative="1" as="geometry">
            <mxPoint x="280" y="400" as="sourcePoint" />
            <mxPoint x="520" y="400" as="targetPoint" />
          </mxGeometry>
        </mxCell>
        <mxCell id="bbqy9v9eoCSNzsAu7G5P-13" value="" style="endArrow=none;html=1;rounded=0;entryX=0.25;entryY=1;entryDx=0;entryDy=0;" edge="1" parent="1">
          <mxGeometry width="50" height="50" relative="1" as="geometry">
            <mxPoint x="280" y="400" as="sourcePoint" />
            <mxPoint x="279.5" y="360" as="targetPoint" />
          </mxGeometry>
        </mxCell>
        <mxCell id="bbqy9v9eoCSNzsAu7G5P-14" value="" style="endArrow=none;html=1;rounded=0;entryX=0.25;entryY=1;entryDx=0;entryDy=0;" edge="1" parent="1">
          <mxGeometry width="50" height="50" relative="1" as="geometry">
            <mxPoint x="520" y="400" as="sourcePoint" />
            <mxPoint x="519.5" y="360" as="targetPoint" />
          </mxGeometry>
        </mxCell>
        <mxCell id="bbqy9v9eoCSNzsAu7G5P-15" value="" style="endArrow=classic;html=1;rounded=0;entryX=0.5;entryY=0;entryDx=0;entryDy=0;" edge="1" parent="1" target="ivFIAC95_RpvVgIWz3T0-2">
          <mxGeometry width="50" height="50" relative="1" as="geometry">
            <mxPoint x="400" y="400" as="sourcePoint" />
            <mxPoint x="450" y="350" as="targetPoint" />
          </mxGeometry>
        </mxCell>
        <mxCell id="bbqy9v9eoCSNzsAu7G5P-16" value="read only pods " style="text;whiteSpace=wrap;" vertex="1" parent="1">
          <mxGeometry x="600" y="320" width="140" height="40" as="geometry" />
        </mxCell>
        <mxCell id="bbqy9v9eoCSNzsAu7G5P-17" value="read write pod" style="text;whiteSpace=wrap;" vertex="1" parent="1">
          <mxGeometry x="490" y="460" width="140" height="40" as="geometry" />
        </mxCell>
        <mxCell id="bbqy9v9eoCSNzsAu7G5P-18" value=" Database Architecture - IPSL Case interview" style="text;whiteSpace=wrap;fontStyle=1" vertex="1" parent="1">
          <mxGeometry x="330" y="20" width="285" height="40" as="geometry" />
        </mxCell>
      </root>
    </mxGraphModel>
  </diagram>
</mxfile>
